<svg width="16" height="16" viewBox="0 0 16 16" fill="none" xmlns="http://www.w3.org/2000/svg">
<g clip-path="url(#clip0_930_34579)">
<path d="M5.81619 0.761902C3.78496 0.807616 2.59867 1.0019 1.788 1.80952C1.07791 2.51657 0.840957 3.51085 0.761719 5.10476M10.1834 0.761902C12.2147 0.807616 13.401 1.0019 14.2116 1.80952C14.9217 2.51657 15.1587 3.51085 15.2379 5.10476M10.1834 15.2381C12.2147 15.1924 13.401 14.9981 14.2116 14.1905C14.9217 13.4834 15.1587 12.4891 15.2379 10.8952M5.81619 15.2381C3.78496 15.1924 2.59867 14.9981 1.788 14.1905C1.07791 13.4834 0.840957 12.4891 0.761719 10.8952M4.57124 11.8095C6.348 9.94895 9.63258 9.86133 11.4284 11.8095M9.90077 6.09524C9.90077 7.14666 9.04743 8 7.99372 8C7.74333 8.0004 7.49531 7.95143 7.26386 7.85588C7.03241 7.76034 6.82207 7.6201 6.64488 7.44318C6.46768 7.26627 6.32711 7.05616 6.23119 6.82486C6.13528 6.59357 6.08591 6.34563 6.08591 6.09524C6.08591 5.04381 6.93924 4.19047 7.99372 4.19047C8.24405 4.19017 8.49198 4.23922 8.72334 4.33481C8.9547 4.4304 9.16495 4.57065 9.34207 4.74756C9.51918 4.92446 9.65969 5.13454 9.75556 5.36579C9.85142 5.59703 9.90077 5.84491 9.90077 6.09524Z" stroke="#5F5E62" stroke-linecap="round" stroke-linejoin="round"/>
</g>
<defs>
<clipPath id="clip0_930_34579">
<rect width="16" height="16" fill="white"/>
</clipPath>
</defs>
</svg>
