<svg width="39" height="38" viewBox="0 0 39 38" fill="none" xmlns="http://www.w3.org/2000/svg">
<path d="M16.4826 1.78396C17.581 0.776419 19.2738 0.776417 20.3722 1.78396L21.8004 3.09405C22.4579 3.69715 23.3609 3.96068 24.2421 3.80661L26.1562 3.47192C27.6283 3.21453 29.0524 4.12416 29.4284 5.56197L29.9172 7.43153C30.1423 8.29216 30.7586 8.99909 31.5837 9.34295L33.376 10.0899C34.7544 10.6644 35.4576 12.1949 34.9918 13.6065L34.3861 15.4419C34.1072 16.2868 34.2412 17.2127 34.7482 17.9453L35.8497 19.5368C36.6968 20.7608 36.4559 22.4262 35.2962 23.3634L33.7882 24.582C33.094 25.1429 32.703 25.9938 32.7311 26.8826L32.792 28.8133C32.8388 30.2981 31.7302 31.5697 30.2448 31.7349L28.3133 31.9498C27.4242 32.0487 26.6324 32.5544 26.1726 33.3172L25.1736 34.9741C24.4053 36.2484 22.781 36.7224 21.4415 36.0632L19.6998 35.2061C18.898 34.8116 17.9568 34.8116 17.1551 35.2061L15.4133 36.0632C14.0738 36.7224 12.4495 36.2484 11.6813 34.9741L10.6822 33.3172C10.2224 32.5544 9.43063 32.0487 8.54149 31.9498L6.61002 31.7349C5.1246 31.5697 4.01602 30.2981 4.06286 28.8133L4.12376 26.8826C4.1518 25.9938 3.76084 25.1429 3.06665 24.582L1.55866 23.3634C0.39893 22.4262 0.158011 20.7608 1.00511 19.5368L2.10658 17.9453C2.61363 17.2127 2.74757 16.2868 2.46873 15.4419L1.86301 13.6065C1.39717 12.1949 2.1004 10.6644 3.47882 10.0899L5.27115 9.34296C6.09623 8.99909 6.71255 8.29216 6.93759 7.43153L7.42644 5.56197C7.80239 4.12416 9.22651 3.21453 10.6986 3.47192L12.6127 3.80661C13.4939 3.96068 14.3969 3.69715 15.0544 3.09406L16.4826 1.78396Z" fill="#27AE60"/>
<path fill-rule="evenodd" clip-rule="evenodd" d="M13.6482 18.05C13.1203 17.5253 12.2644 17.5253 11.7365 18.05C11.2086 18.5747 11.2086 19.4253 11.7365 19.95L15.164 23.3565C15.9105 24.0985 17.1209 24.0985 17.8675 23.3565L25.1183 16.15C25.6462 15.6253 25.6462 14.7747 25.1183 14.25C24.5904 13.7253 23.7345 13.7253 23.2066 14.25L17.8675 19.5565C17.1209 20.2985 15.9105 20.2985 15.164 19.5565L13.6482 18.05Z" fill="white"/>
<path d="M38.5 34.2C38.5 35.2493 37.6441 36.1 36.5883 36.1C35.5325 36.1 34.6766 35.2493 34.6766 34.2C34.6766 33.1507 35.5325 32.3 36.5883 32.3C37.6441 32.3 38.5 33.1507 38.5 34.2Z" fill="#219653"/>
<path d="M37.5442 2.85C37.5442 3.89934 36.6883 4.75 35.6325 4.75C34.5767 4.75 33.7208 3.89934 33.7208 2.85C33.7208 1.80066 34.5767 0.95 35.6325 0.95C36.6883 0.95 37.5442 1.80066 37.5442 2.85Z" fill="#219653"/>
<path d="M7.91319 35.15C7.91319 36.1993 7.05731 37.05 6.00152 37.05C4.94573 37.05 4.08984 36.1993 4.08984 35.15C4.08984 34.1007 4.94573 33.25 6.00152 33.25C7.05731 33.25 7.91319 34.1007 7.91319 35.15Z" fill="#219653"/>
<path d="M4.08984 4.75C4.08984 5.27467 3.6619 5.7 3.134 5.7C2.60611 5.7 2.17816 5.27467 2.17816 4.75C2.17816 4.22533 2.60611 3.8 3.134 3.8C3.6619 3.8 4.08984 4.22533 4.08984 4.75Z" fill="#219653"/>
<path d="M7.91319 0.95C7.91319 1.47467 7.48525 1.9 6.95735 1.9C6.42946 1.9 6.00152 1.47467 6.00152 0.95C6.00152 0.425329 6.42946 0 6.95735 0C7.48525 0 7.91319 0.425329 7.91319 0.95Z" fill="#219653"/>
<path d="M32.765 37.05C32.765 37.5747 32.337 38 31.8091 38C31.2812 38 30.8533 37.5747 30.8533 37.05C30.8533 36.5253 31.2812 36.1 31.8091 36.1C32.337 36.1 32.765 36.5253 32.765 37.05Z" fill="#219653"/>
<path d="M38.5 8.55C38.5 9.07467 38.0721 9.5 37.5442 9.5C37.0163 9.5 36.5883 9.07467 36.5883 8.55C36.5883 8.02533 37.0163 7.6 37.5442 7.6C38.0721 7.6 38.5 8.02533 38.5 8.55Z" fill="#219653"/>
</svg>
