<svg width="39" height="38" viewBox="0 0 39 38" fill="none" xmlns="http://www.w3.org/2000/svg">
<path d="M17.4653 1.87785C18.6145 0.817284 20.3855 0.817282 21.5347 1.87785L22.7979 3.04368C23.4857 3.67852 24.4304 3.95592 25.3523 3.79374L27.0453 3.49591C28.5854 3.22497 30.0753 4.18248 30.4686 5.69595L30.901 7.35965C31.1364 8.26558 31.7812 9.00971 32.6444 9.37167L34.2296 10.0364C35.6717 10.6411 36.4074 12.2521 35.9201 13.738L35.3844 15.3713C35.0926 16.2607 35.2328 17.2353 35.7632 18.0065L36.7374 19.4228C37.6237 20.7112 37.3716 22.4642 36.1583 23.4507L34.8246 24.5351C34.0983 25.1256 33.6893 26.0212 33.7186 26.9568L33.7725 28.6749C33.8215 30.2379 32.6617 31.5764 31.1076 31.7503L29.3993 31.9415C28.4691 32.0456 27.6408 32.5779 27.1597 33.3809L26.2761 34.8554C25.4723 36.1967 23.773 36.6957 22.3716 36.0018L20.8311 35.2391C19.9923 34.8238 19.0077 34.8238 18.1689 35.2391L16.6284 36.0018C15.227 36.6957 13.5277 36.1967 12.7239 34.8554L11.8403 33.3809C11.3592 32.5779 10.5309 32.0456 9.60066 31.9415L7.89237 31.7503C6.33832 31.5764 5.17852 30.2379 5.22752 28.6749L5.28139 26.9568C5.31072 26.0212 4.90169 25.1256 4.17543 24.5351L2.84169 23.4507C1.62838 22.4642 1.37633 20.7112 2.26257 19.4228L3.23676 18.0065C3.76725 17.2353 3.90737 16.2607 3.61565 15.3713L3.07992 13.738C2.59256 12.2521 3.32828 10.6411 4.77038 10.0364L6.3556 9.37167C7.21881 9.00971 7.8636 8.26558 8.09903 7.35965L8.5314 5.69596C8.92472 4.18248 10.4146 3.22497 11.9547 3.49591L13.6477 3.79374C14.5696 3.95592 15.5143 3.67852 16.2021 3.04369L17.4653 1.87785Z" fill="#B9B9B9"/>
<path fill-rule="evenodd" clip-rule="evenodd" d="M14.7499 18.0503C14.2252 17.5256 13.3746 17.5256 12.8499 18.0503C12.3252 18.575 12.3252 19.4256 12.8499 19.9503L16.1857 23.2861C16.9667 24.0671 18.2331 24.0671 19.0141 23.2861L26.1499 16.1503C26.6746 15.6256 26.6746 14.775 26.1499 14.2503C25.6252 13.7256 24.7746 13.7256 24.2499 14.2503L19.0141 19.4861C18.2331 20.2671 16.9667 20.2671 16.1857 19.4861L14.7499 18.0503Z" fill="white"/>
</svg>
