<svg width="16" height="16" viewBox="0 0 16 16" fill="none" xmlns="http://www.w3.org/2000/svg">
<path d="M7.32962 3.12V5.70667C7.32962 5.92085 7.28732 6.13292 7.20516 6.33071C7.12299 6.5285 7.00258 6.70812 6.85082 6.85926C6.69906 7.0104 6.51895 7.13007 6.32083 7.21143C6.1227 7.29278 5.91046 7.33421 5.69628 7.33333H3.12295C2.90935 7.33463 2.69769 7.29278 2.50065 7.2103C2.30362 7.12782 2.12526 7.00641 1.97628 6.85333C1.82533 6.70311 1.70574 6.52438 1.62448 6.32753C1.54322 6.13067 1.50191 5.91963 1.50295 5.70667V3.12667C1.50295 2.6964 1.67341 2.28366 1.97703 1.97879C2.28065 1.67392 2.69269 1.50176 3.12295 1.5H5.70295C5.91633 1.50021 6.12754 1.54274 6.32437 1.62513C6.5212 1.70752 6.69972 1.82814 6.84962 1.98C7.00158 2.12843 7.12232 2.30574 7.20475 2.50152C7.28719 2.6973 7.32964 2.90758 7.32962 3.12ZM14.4963 3.12667V5.70667C14.4928 6.13587 14.3212 6.5466 14.0184 6.85073C13.7155 7.15485 13.3055 7.32811 12.8763 7.33333H10.2896C9.85842 7.33069 9.44502 7.16104 9.13628 6.86C8.98542 6.70833 8.86596 6.52838 8.78474 6.33048C8.70352 6.13257 8.66213 5.92059 8.66295 5.70667V3.12667C8.66203 2.91312 8.70405 2.70157 8.78651 2.50459C8.86897 2.30761 8.99018 2.12921 9.14295 1.98C9.29284 1.82814 9.47137 1.70752 9.6682 1.62513C9.86502 1.54274 10.0762 1.50021 10.2896 1.5H12.8696C13.3 1.50348 13.7117 1.67598 14.016 1.98029C14.3203 2.2846 14.4928 2.69633 14.4963 3.12667ZM14.4963 10.2933V12.8733C14.4928 13.3025 14.3212 13.7133 14.0184 14.0174C13.7155 14.3215 13.3055 14.4948 12.8763 14.5H10.2896C9.85567 14.5044 9.43712 14.3394 9.12295 14.04C8.97149 13.8888 8.85164 13.7089 8.77038 13.5109C8.68912 13.3129 8.64806 13.1007 8.64962 12.8867V10.3067C8.64874 10.0931 8.69078 9.88159 8.77323 9.68461C8.85569 9.48764 8.97688 9.30923 9.12962 9.16C9.27953 9.00817 9.45806 8.88757 9.65488 8.80518C9.85171 8.72279 10.0629 8.68024 10.2763 8.68H12.8563C13.2866 8.68349 13.6983 8.85598 14.0027 9.16029C14.307 9.4646 14.4795 9.87633 14.4829 10.3067L14.4963 10.2933ZM7.32962 10.3V12.88C7.32437 13.3103 7.15019 13.7214 6.84463 14.0244C6.53907 14.3275 6.12664 14.4983 5.69628 14.5H3.12295C2.90996 14.5009 2.69891 14.4596 2.50196 14.3785C2.30501 14.2974 2.12608 14.1781 1.97547 14.0275C1.82486 13.8769 1.70557 13.6979 1.62447 13.501C1.54337 13.304 1.50207 13.093 1.50295 12.88V10.3C1.50467 9.86964 1.67548 9.45721 1.97854 9.15165C2.2816 8.8461 2.69262 8.67191 3.12295 8.66667H5.70295C6.13523 8.67039 6.549 8.8426 6.85628 9.14667C7.16034 9.45341 7.33053 9.86809 7.32962 10.3Z" fill="#1B1B1F"/>
</svg>
