<svg width="16" height="14" viewBox="0 0 16 14" fill="none" xmlns="http://www.w3.org/2000/svg">
<path d="M12.7046 12.6889H13.0531C13.8708 12.6889 14.5215 12.3163 15.1053 11.7957C16.5887 10.4724 13.1014 9.13334 11.911 9.13334M10.4888 2.0713C10.6504 2.03859 10.8176 2.02223 10.9901 2.02223C12.2843 2.02223 13.3332 2.97726 13.3332 4.15557C13.3332 5.33388 12.2843 6.2889 10.9901 6.2889C10.8176 6.2889 10.6504 6.27254 10.4888 6.23983M2.65306 9.92339C1.81466 10.3728 -0.383388 11.2901 0.955635 12.4379C1.60986 12.9989 2.33803 13.4 3.25395 13.4H8.47919C9.3951 13.4 10.1233 12.9989 10.7775 12.4379C12.1165 11.2901 9.91848 10.3728 9.08008 9.92339C7.11386 8.87023 4.61928 8.87023 2.65306 9.92339ZM8.71101 3.80001C8.71101 4.5544 8.41133 5.2779 7.87789 5.81134C7.34446 6.34477 6.62096 6.64446 5.86657 6.64446C5.11217 6.64446 4.38868 6.34477 3.85524 5.81134C3.32181 5.2779 3.02212 4.5544 3.02212 3.80001C3.02212 3.04562 3.32181 2.32212 3.85524 1.78868C4.38868 1.25525 5.11217 0.955566 5.86657 0.955566C6.62096 0.955566 7.34446 1.25525 7.87789 1.78868C8.41133 2.32212 8.71101 3.04562 8.71101 3.80001Z" stroke="#5F5E62" stroke-linecap="round" stroke-linejoin="round"/>
</svg>
