<svg width="16" height="16" viewBox="0 0 16 16" fill="none" xmlns="http://www.w3.org/2000/svg">
<g clip-path="url(#clip0_930_34567)">
<path d="M4.19029 0.761902C3.11829 0.887616 2.38 1.15428 1.82153 1.71733C0.761719 2.78552 0.761719 4.50438 0.761719 7.94362C0.761719 11.3821 0.761719 13.1017 1.82153 14.1699C2.88134 15.2381 4.58724 15.2381 7.99981 15.2381C11.4116 15.2381 13.1183 15.2381 14.1781 14.1699C15.2379 13.1017 15.2379 11.3821 15.2379 7.94362C15.2379 4.50514 15.2379 2.78552 14.1781 1.71733C13.6196 1.15352 12.8813 0.887616 11.8093 0.761902" stroke="#5F5E62" stroke-linecap="round" stroke-linejoin="round"/>
<path d="M6.09505 4.95238C6.46991 5.3379 7.46648 6.85714 7.99981 6.85714M7.99981 6.85714C8.53315 6.85714 9.52972 5.3379 9.90458 4.95238M7.99981 6.85714V0.761902M15.2379 9.14285H11.4848C10.8432 9.14285 10.3396 9.67924 10.0562 10.2453C9.74915 10.8609 9.13429 11.4286 7.99981 11.4286C6.86534 11.4286 6.25048 10.8609 5.94267 10.2453C5.66077 9.67924 5.15639 9.14285 4.51486 9.14285H0.761719" stroke="#5F5E62" stroke-linecap="round" stroke-linejoin="round"/>
</g>
<defs>
<clipPath id="clip0_930_34567">
<rect width="16" height="16" fill="white"/>
</clipPath>
</defs>
</svg>
