<svg width="16" height="16" viewBox="0 0 16 16" fill="none" xmlns="http://www.w3.org/2000/svg">
<g clip-path="url(#clip0_930_34583)">
<path d="M15.1109 8C15.1109 11.9275 11.9273 15.1111 7.99978 15.1111C4.07232 15.1111 0.888672 11.9275 0.888672 8C0.888672 4.07253 4.07232 0.888885 7.99978 0.888885C11.9273 0.888885 15.1109 4.07253 15.1109 8Z" stroke="#5F5E62" stroke-linecap="round" stroke-linejoin="round"/>
<path d="M9.9273 6.62116C9.8569 6.07858 9.23397 5.20249 8.11397 5.20249C6.81335 5.20249 6.26579 5.92285 6.15486 6.28338C5.98135 6.76551 6.01619 7.75609 7.54152 7.86418C9.4473 7.99929 10.211 8.224 10.1143 9.39093C10.0176 10.5579 8.9545 10.8096 8.11468 10.7826C7.27486 10.7556 5.90099 10.3701 5.84766 9.33191M7.98099 4.44302V5.20533M7.98099 10.7755V11.5541" stroke="#5F5E62" stroke-linecap="round" stroke-linejoin="round"/>
</g>
<defs>
<clipPath id="clip0_930_34583">
<rect width="16" height="16" fill="white"/>
</clipPath>
</defs>
</svg>
