<svg width="16" height="18" viewBox="0 0 16 18" fill="none" xmlns="http://www.w3.org/2000/svg">
<g clip-path="url(#clip0_930_34589)">
<path d="M4.57127 5.95239L4.69927 4.41791C4.76823 3.58997 5.14583 2.81818 5.7572 2.25562C6.36856 1.69306 7.16903 1.38081 7.99984 1.38081C8.83065 1.38081 9.63111 1.69306 10.2425 2.25562C10.8538 2.81818 11.2315 3.58997 11.3004 4.41791L11.4284 5.95239M1.18993 11.4328L1.46803 9.85486C1.79717 7.98972 1.96098 7.05715 2.61241 6.50477C3.26384 5.95239 4.19946 5.95239 6.06993 5.95239H9.92974C11.8002 5.95239 12.7358 5.95239 13.3873 6.50477C14.0387 7.05715 14.2025 7.98972 14.5316 9.85486L14.8097 11.4328C15.2654 14.0141 15.4924 15.3048 14.7922 16.1528C14.0913 17 12.796 17 10.2078 17H5.79184C3.20289 17 1.90841 17 1.20746 16.152C0.506505 15.304 0.735077 14.0141 1.18993 11.4328Z" stroke="#5F5E62" stroke-linecap="round" stroke-linejoin="round"/>
<path d="M10.2853 8.2381C10.1862 9.31467 9.19272 10.1429 7.99958 10.1429C6.80644 10.1429 5.81291 9.31467 5.71387 8.2381" stroke="#5F5E62" stroke-linecap="round" stroke-linejoin="round"/>
</g>
<defs>
<clipPath id="clip0_930_34589">
<rect width="16" height="17.1429" fill="white" transform="translate(0 0.428574)"/>
</clipPath>
</defs>
</svg>
