<svg width="16" height="18" viewBox="0 0 16 18" fill="none" xmlns="http://www.w3.org/2000/svg">
<g clip-path="url(#clip0_930_34595)">
<path d="M7.94378 5.56758C7.23177 5.56758 6.53575 5.77871 5.94373 6.17429C5.35171 6.56986 4.89029 7.1321 4.61782 7.78992C4.34534 8.44773 4.27405 9.17157 4.41296 9.8699C4.55186 10.5682 4.89473 11.2097 5.3982 11.7132C5.90167 12.2166 6.54313 12.5595 7.24146 12.6984C7.93979 12.8373 8.66363 12.766 9.32145 12.4935C9.97926 12.2211 10.5415 11.7596 10.9371 11.1676C11.3326 10.5756 11.5438 9.87959 11.5438 9.16758C11.5428 8.2131 11.1632 7.29801 10.4883 6.62309C9.81336 5.94817 8.89826 5.56857 7.94378 5.56758ZM7.94378 11.5676C7.46911 11.5676 7.00509 11.4268 6.61042 11.1631C6.21574 10.8994 5.90812 10.5246 5.72647 10.086C5.54482 9.64748 5.49729 9.16492 5.5899 8.69936C5.6825 8.23381 5.91108 7.80617 6.24673 7.47052C6.58237 7.13488 7.01001 6.9063 7.47557 6.81369C7.94112 6.72109 8.42368 6.76862 8.86222 6.95027C9.30077 7.13192 9.6756 7.43953 9.93931 7.83421C10.203 8.22889 10.3438 8.6929 10.3438 9.16758C10.3438 9.8041 10.0909 10.4145 9.64084 10.8646C9.19075 11.3147 8.5803 11.5676 7.94378 11.5676ZM14.5438 9.32958C14.5468 9.22158 14.5468 9.11358 14.5438 9.00558L15.6628 7.60758C15.7215 7.53418 15.7621 7.44802 15.7814 7.35605C15.8006 7.26408 15.798 7.16886 15.7738 7.07808C15.5903 6.38853 15.3159 5.72646 14.9578 5.10933C14.9109 5.02857 14.8458 4.95987 14.7677 4.9087C14.6895 4.85753 14.6006 4.8253 14.5078 4.81458L12.7288 4.61658C12.6548 4.53858 12.5798 4.46358 12.5038 4.39158L12.2938 2.60808C12.283 2.51524 12.2506 2.4262 12.1993 2.34808C12.148 2.26995 12.0792 2.20489 11.9983 2.15808C11.3809 1.80059 10.7189 1.52645 10.0295 1.34283C9.93869 1.31867 9.84344 1.3162 9.75147 1.33562C9.6595 1.35503 9.57337 1.39578 9.50003 1.45458L8.10579 2.56758C7.99779 2.56758 7.88978 2.56758 7.78178 2.56758L6.38378 1.45083C6.31038 1.39215 6.22423 1.35154 6.13226 1.33226C6.04028 1.31298 5.94507 1.31557 5.85428 1.33983C5.16485 1.5236 4.50283 1.79799 3.88553 2.15583C3.80477 2.20272 3.73607 2.26782 3.6849 2.34594C3.63373 2.42407 3.6015 2.51306 3.59078 2.60583L3.39278 4.38783C3.31478 4.46233 3.23978 4.53733 3.16778 4.61283L1.38428 4.81758C1.29144 4.82838 1.20241 4.86072 1.12428 4.91202C1.04615 4.96333 0.981093 5.03218 0.934284 5.11308C0.576794 5.73045 0.30266 6.39246 0.119034 7.08183C0.0948819 7.17267 0.0924116 7.26792 0.111822 7.35989C0.131233 7.45187 0.171982 7.53799 0.230784 7.61133L1.34378 9.00558C1.34378 9.11358 1.34378 9.22158 1.34378 9.32958L0.227034 10.7276C0.168361 10.801 0.127748 10.8871 0.108468 10.9791C0.0891876 11.0711 0.0917793 11.1663 0.116034 11.2571C0.299476 11.9466 0.573886 12.6087 0.932034 13.2258C0.978929 13.3066 1.04403 13.3753 1.12215 13.4265C1.20027 13.4776 1.28926 13.5099 1.38203 13.5206L3.16103 13.7186C3.23553 13.7966 3.31053 13.8716 3.38603 13.9436L3.59378 15.7271C3.60459 15.8199 3.63693 15.909 3.68823 15.9871C3.73954 16.0652 3.80838 16.1303 3.88928 16.1771C4.50666 16.5346 5.16867 16.8087 5.85803 16.9923C5.94888 17.0165 6.04413 17.019 6.1361 16.9995C6.22807 16.9801 6.3142 16.9394 6.38753 16.8806L7.78178 15.7676C7.88978 15.7706 7.99779 15.7706 8.10579 15.7676L9.50379 16.8866C9.57719 16.9453 9.66334 16.9859 9.75531 17.0051C9.84728 17.0244 9.9425 17.0218 10.0333 16.9976C10.7228 16.8141 11.3849 16.5397 12.002 16.1816C12.0828 16.1347 12.1515 16.0696 12.2027 15.9915C12.2538 15.9133 12.2861 15.8244 12.2968 15.7316L12.4948 13.9526C12.5728 13.8786 12.6478 13.8036 12.7198 13.7276L14.5033 13.5176C14.5961 13.5068 14.6852 13.4744 14.7633 13.4231C14.8414 13.3718 14.9065 13.303 14.9533 13.2221C15.3108 12.6047 15.5849 11.9427 15.7685 11.2533C15.7927 11.1625 15.7952 11.0672 15.7757 10.9753C15.7563 10.8833 15.7156 10.7972 15.6568 10.7238L14.5438 9.32958ZM13.3363 8.84208C13.349 9.05889 13.349 9.27626 13.3363 9.49308C13.3273 9.64152 13.3739 9.78798 13.4668 9.90408L14.531 11.2338C14.4089 11.6219 14.2526 11.9984 14.0638 12.3588L12.3688 12.5508C12.2212 12.5672 12.0849 12.6378 11.9863 12.7488C11.8419 12.9112 11.6882 13.065 11.5258 13.2093C11.4147 13.3079 11.3442 13.4442 11.3278 13.5918L11.1395 15.2853C10.7792 15.4742 10.4027 15.6306 10.0145 15.7526L8.68403 14.6883C8.57757 14.6033 8.44531 14.557 8.30903 14.5571H8.27304C8.05622 14.5698 7.83885 14.5698 7.62203 14.5571C7.4736 14.5481 7.32713 14.5946 7.21103 14.6876L5.87753 15.7526C5.48943 15.6305 5.11295 15.4741 4.75253 15.2853L4.56053 13.5926C4.54415 13.445 4.4736 13.3087 4.36253 13.2101C4.20017 13.0657 4.0464 12.9119 3.90203 12.7496C3.80343 12.6385 3.66715 12.568 3.51953 12.5516L1.82603 12.3626C1.63718 12.0022 1.48081 11.6257 1.35878 11.2376L2.42303 9.90708C2.51596 9.79098 2.56247 9.64452 2.55353 9.49608C2.54078 9.27927 2.54078 9.06189 2.55353 8.84508C2.56247 8.69664 2.51596 8.55017 2.42303 8.43408L1.35878 7.10133C1.4809 6.71323 1.63727 6.33675 1.82603 5.97633L3.51878 5.78433C3.6664 5.76794 3.80268 5.69739 3.90128 5.58633C4.04565 5.42396 4.19942 5.2702 4.36178 5.12583C4.47329 5.02716 4.54413 4.89056 4.56053 4.74258L4.74878 3.04983C5.10916 2.86097 5.48565 2.7046 5.87378 2.58258L7.20428 3.64683C7.32038 3.73976 7.46685 3.78626 7.61528 3.77733C7.8321 3.76458 8.04947 3.76458 8.26628 3.77733C8.41472 3.78626 8.56119 3.73976 8.67728 3.64683L10.01 2.58258C10.3981 2.7047 10.7746 2.86106 11.135 3.04983L11.327 4.74258C11.3434 4.89019 11.414 5.02648 11.525 5.12508C11.6874 5.26945 11.8412 5.42321 11.9855 5.58558C12.0841 5.69664 12.2204 5.76719 12.368 5.78358L14.0615 5.97183C14.2504 6.3322 14.4068 6.70869 14.5288 7.09683L13.4645 8.42733C13.3707 8.5444 13.3242 8.69237 13.334 8.84208H13.3363Z" fill="#727272"/>
</g>
<defs>
<clipPath id="clip0_930_34595">
<rect width="16" height="16.8" fill="white" transform="translate(0 0.599998)"/>
</clipPath>
</defs>
</svg>
