<svg width="14" height="13" viewBox="0 0 14 13" fill="none" xmlns="http://www.w3.org/2000/svg">
<path d="M10.4997 0.666748V1.83341M3.49967 0.666748V1.83341M6.99734 7.08342H7.00201M6.99734 9.41675H7.00201M9.32776 7.08342H9.33301M4.66634 7.08342H4.67159M4.66634 9.41675H4.67159M2.04134 4.16675H11.958M1.74967 4.16675H12.2497M1.45801 6.64183C1.45801 4.10025 1.45801 2.82916 2.18834 2.03933C2.91867 1.25008 4.09467 1.25008 6.44551 1.25008H7.55384C9.90468 1.25008 11.0807 1.25008 11.811 2.03991C12.5413 2.82916 12.5413 4.10025 12.5413 6.64242V6.94167C12.5413 9.48325 12.5413 10.7543 11.811 11.5442C11.0807 12.3334 9.90468 12.3334 7.55384 12.3334H6.44551C4.09467 12.3334 2.91867 12.3334 2.18834 11.5436C1.45801 10.7543 1.45801 9.48325 1.45801 6.94108V6.64183Z" stroke="#959595" stroke-linecap="round" stroke-linejoin="round"/>
</svg>
