<svg width="18" height="14" viewBox="0 0 18 14" fill="none" xmlns="http://www.w3.org/2000/svg">
<path d="M15.5803 11.5C16.1428 11.5 16.5891 11.1468 16.9903 10.6525C17.8123 9.64 16.4631 8.83 15.9486 8.43475C15.4258 8.032 14.8416 7.80325 14.2498 7.75M13.4998 6.25C13.9971 6.25 14.474 6.05246 14.8257 5.70083C15.1773 5.34919 15.3748 4.87228 15.3748 4.375C15.3748 3.87772 15.1773 3.40081 14.8257 3.04917C14.474 2.69754 13.9971 2.5 13.4998 2.5M2.41934 11.5C1.85684 11.5 1.41059 11.1468 1.00934 10.6525C0.187336 9.64 1.53659 8.83 2.05109 8.43475C2.57384 8.032 3.15734 7.8025 3.74984 7.75M4.12484 6.25C3.62755 6.25 3.15064 6.05246 2.79901 5.70083C2.44738 5.34919 2.24984 4.87228 2.24984 4.375C2.24984 3.87772 2.44738 3.40081 2.79901 3.04917C3.15064 2.69754 3.62755 2.5 4.12484 2.5M6.06284 9.33325C5.29634 9.80725 3.28709 10.7747 4.51034 11.9852C5.10959 12.577 5.77484 13 6.61259 13H11.3886C12.2263 13 12.8916 12.577 13.4893 11.9852C14.7133 10.7747 12.7041 9.80725 11.9376 9.33325C11.0547 8.78875 10.0379 8.5004 9.00059 8.5004C7.96331 8.5004 6.94646 8.78875 6.06359 9.33325M11.6248 3.625C11.6248 3.96972 11.5569 4.31106 11.425 4.62954C11.2931 4.94802 11.0997 5.2374 10.856 5.48116C10.6122 5.72491 10.3229 5.91827 10.0044 6.05018C9.6859 6.1821 9.34455 6.25 8.99983 6.25C8.65511 6.25 8.31377 6.1821 7.99529 6.05018C7.67681 5.91827 7.38743 5.72491 7.14368 5.48116C6.89993 5.2374 6.70657 4.94802 6.57465 4.62954C6.44273 4.31106 6.37484 3.96972 6.37484 3.625C6.37484 2.92881 6.6514 2.26113 7.14368 1.76884C7.63596 1.27656 8.30364 1 8.99983 1C9.69603 1 10.3637 1.27656 10.856 1.76884C11.3483 2.26113 11.6248 2.92881 11.6248 3.625Z" stroke="#959595" stroke-width="1.3" stroke-linecap="round" stroke-linejoin="round"/>
</svg>
