<svg width="14" height="14" viewBox="0 0 14 14" fill="none" xmlns="http://www.w3.org/2000/svg">
<path d="M13.6871 8.40016C13.6197 8.33268 13.5353 8.2848 13.4428 8.26168C13.3503 8.23856 13.2533 8.24106 13.1621 8.26891C12.161 8.57155 11.0966 8.59692 10.0823 8.34233C9.0679 8.08774 8.14163 7.56273 7.40213 6.82323C6.66264 6.08373 6.13762 5.15746 5.88303 4.14311C5.62844 3.12876 5.65381 2.06435 5.95645 1.06329C5.98454 0.972069 5.98723 0.874921 5.96423 0.782289C5.94123 0.689657 5.89342 0.605047 5.82593 0.537558C5.75844 0.470069 5.67383 0.422255 5.5812 0.399257C5.48856 0.37626 5.39142 0.378949 5.3002 0.407037C3.91619 0.831004 2.70115 1.68068 1.82798 2.83516C1.06438 3.84897 0.598597 5.05563 0.482973 6.31957C0.367348 7.58351 0.606459 8.85465 1.17344 9.99018C1.74043 11.1257 2.61282 12.0807 3.6926 12.7477C4.77239 13.4148 6.0168 13.7675 7.28601 13.7663C8.76674 13.7709 10.2081 13.2895 11.3889 12.3961C12.5434 11.5229 13.393 10.3079 13.817 8.92385C13.8448 8.83297 13.8474 8.73626 13.8245 8.64404C13.8016 8.55181 13.7541 8.46752 13.6871 8.40016ZM10.7576 11.5574C9.64559 12.3949 8.26848 12.8026 6.87976 12.7054C5.49104 12.6081 4.18418 12.0125 3.19977 11.0282C2.21535 10.0438 1.61963 8.73703 1.52228 7.34832C1.42493 5.95961 1.83249 4.58247 2.66995 3.47041C3.21556 2.74989 3.92094 2.16582 4.73057 1.76416C4.68445 2.08784 4.66121 2.41437 4.66101 2.74132C4.66292 4.55083 5.3826 6.28569 6.66212 7.56521C7.94164 8.84473 9.6765 9.56441 11.486 9.56632C11.8136 9.56622 12.1408 9.54297 12.4651 9.49676C12.0631 10.3065 11.4786 11.0119 10.7576 11.5574Z" fill="#1B1B1F"/>
</svg>
