<svg width="18" height="14" viewBox="0 0 18 14" fill="none" xmlns="http://www.w3.org/2000/svg">
<path d="M8.25 4H9.75M12.75 4.6795L12.8445 4.6015C14.4315 3.292 15.225 2.63725 15.8625 2.95375C16.5 3.2695 16.5 4.318 16.5 6.4135V7.5865C16.5 9.682 16.5 10.7305 15.8625 11.0463C15.225 11.362 14.4315 10.708 12.8445 9.3985L12.75 9.3205M1.5 6.25C1.5 3.775 1.5 2.5375 2.26875 1.76875C3.0375 1 4.275 1 6.75 1H7.5C9.975 1 11.2125 1 11.9813 1.76875C12.75 2.5375 12.75 3.775 12.75 6.25V7.75C12.75 10.225 12.75 11.4625 11.9813 12.2313C11.2125 13 9.975 13 7.5 13H6.75C4.275 13 3.0375 13 2.26875 12.2313C1.5 11.4625 1.5 10.225 1.5 7.75V6.25Z" stroke="#959595" stroke-width="1.3" stroke-linecap="round" stroke-linejoin="round"/>
</svg>
