<svg width="8" height="11" viewBox="0 0 8 11" fill="none" xmlns="http://www.w3.org/2000/svg">
<path d="M4.40406 0.238657C4.2969 0.131493 4.15155 0.0712891 4 0.0712891C3.84845 0.0712891 3.7031 0.131493 3.59594 0.238657L0.167368 3.66723C-0.0557892 3.89039 -0.0557892 4.25219 0.167368 4.47535C0.390524 4.69851 0.752333 4.69851 0.97549 4.47535L4 1.45084L7.02451 4.47535C7.24767 4.69851 7.60948 4.69851 7.83263 4.47535C8.05579 4.25219 8.05579 3.89039 7.83263 3.66723L4.40406 0.238657Z" fill="#A1A1A1"/>
<path d="M4.40406 10.7611C4.2969 10.8682 4.15155 10.9284 4 10.9284C3.84845 10.9284 3.7031 10.8682 3.59594 10.7611L0.167368 7.33249C-0.0557892 7.10934 -0.0557892 6.74753 0.167368 6.52437C0.390524 6.30121 0.752333 6.30121 0.97549 6.52437L4 9.54888L7.02451 6.52437C7.24767 6.30121 7.60948 6.30121 7.83263 6.52437C8.05579 6.74753 8.05579 7.10934 7.83263 7.33249L4.40406 10.7611Z" fill="#A1A1A1"/>
</svg>
